PathFileType	4	(X/Y/Z)	/Users/itak/Documents/Research/Walk-IL/dataset/trc/00017_00004.trc
DataRate	CameraRate	NumFrames	NumMarkers	Units	OrigDataRate	OrigDataStartFrame	OrigNumFrames
100.000000	100.000000	4	56	mm	100.000000	330	441
Frame#	Time	RPSI			LPSI			L3			STRN			T10			C7			CLAV			RBAK			LBAK			LSHO			LUPA			LAEL			LAOL			LWTS			LWPS			LFRA			LIFD			LHPS			LHTS			RSHO			RUPA			RAEL			RAOL			RWTS			RWPS			RFRA			RIFD			RHTS			RHPS			RBHD			LFHD			RFHD			LBHD			LHIP			RHIP			RASI			LASI			LKNE			LANK			LTIP			LTOE			LMT1			LMT5			LHEE			RKNE			RTHI			RANK			RTIP			RTOE			RMT1			RMT5			RHEE			LTHI			*53			*54			*55			
		X1	Y1	Z1	X2	Y2	Z2	X3	Y3	Z3	X4	Y4	Z4	X5	Y5	Z5	X6	Y6	Z6	X7	Y7	Z7	X8	Y8	Z8	X9	Y9	Z9	X10	Y10	Z10	X11	Y11	Z11	X12	Y12	Z12	X13	Y13	Z13	X14	Y14	Z14	X15	Y15	Z15	X16	Y16	Z16	X17	Y17	Z17	X18	Y18	Z18	X19	Y19	Z19	X20	Y20	Z20	X21	Y21	Z21	X22	Y22	Z22	X23	Y23	Z23	X24	Y24	Z24	X25	Y25	Z25	X26	Y26	Z26	X27	Y27	Z27	X28	Y28	Z28	X29	Y29	Z29	X30	Y30	Z30	X31	Y31	Z31	X32	Y32	Z32	X33	Y33	Z33	X34	Y34	Z34	X35	Y35	Z35	X36	Y36	Z36	X37	Y37	Z37	X38	Y38	Z38	X39	Y39	Z39	X40	Y40	Z40	X41	Y41	Z41	X42	Y42	Z42	X43	Y43	Z43	X44	Y44	Z44	X45	Y45	Z45	X46	Y46	Z46	X47	Y47	Z47	X48	Y48	Z48	X49	Y49	Z49	X50	Y50	Z50	X51	Y51	Z51	X52	Y52	Z52	X53	Y53	Z53	X54	Y54	Z54	X55	Y55	Z55	X56	Y56	Z56	

331	3.3	-964.7298583984375	1068.483276367188	-133.8223114013672	-980.4454956054688	1068.678833007812	-297.5570373535156	-973.103759765625	1130.19091796875	-220.5133361816406	-733.1814575195312	1315.049682617188	-229.2426605224609	-986.6751708984375	1278.105224609375	-219.0100860595703	-926.5870361328125	1542.838745117188	-231.4198608398438	-771.1295776367188	1443.098510742188	-232.6505584716797	-979.3250732421875	1407.110107421875	-148.385986328125	-948.6866455078125	1501.736328125	-328.934814453125	-847.8855590820312	1504.4169921875	-407.05078125	-887.1680908203125	1381.78271484375	-482.7837829589844	-899.3463134765625	1164.577270507812	-511.0010681152344	-953.3895874023438	1152.761108398438	-420.5240783691406	-791.3755493164062	922.73291015625	-449.6568603515625	-866.5803833007812	899.2814331054688	-490.8599548339844	-879.7120971679688	1049.2373046875	-514.880615234375	-744.2294921875	743.7623291015625	-426.4771728515625	-823.7674560546875	813.9682006835938	-487.9089660644531	-760.7186889648438	831.85791015625	-460.609130859375	-842.4481811523438	1525.155883789062	-60.82358551025391	-853.5652465820312	1454.478271484375	13.68158340454102	-886.9856567382812	1187.316284179688	49.18000793457031	-899.5313110351562	1156.391723632812	-45.49010848999023	-754.3532104492188	930.391357421875	10.75858116149902	-812.7754516601562	914.9248046875	80.88505554199219	-870.2011108398438	1111.665649414062	65.49138641357422	-729.8788452148438	743.9498291015625	-0.03315739333629608	-716.9900512695312	821.6660766601562	24.71042251586914	-768.6233520507812	816.5743408203125	78.31834411621094	-858.498779296875	1717.531005859375	-148.8426818847656	-687.449462890625	1729.085327148438	-273.3338928222656	-685.104248046875	1727.15771484375	-174.6015014648438	-869.0552368164062	1725.642211914062	-293.0320739746094	-891.6917724609375	974.71484375	-416.5292053222656	-853.344970703125	950.5527954101562	-42.26130676269531	-753.2069091796875	980.7189331054688	-120.3420486450195	-775.1384887695312	1011.8203125	-352.5653686523438	-725.4680786132812	546.2655029296875	-373.7356567382812	-824.2083129882812	53.86317825317383	-370.3247375488281	-799.5784301757812	301.7783813476562	-388.5828247070312	-608.1139526367188	69.82533264160156	-306.5650634765625	-666.3466796875	71.0159912109375	-288.1212158203125	-700.7510986328125	63.67205047607422	-389.0171813964844	-894.273681640625	57.04744338989258	-317.2804565429688	-871.871337890625	516.6277465820312	-104.9821090698242	-839.0443115234375	782.8902587890625	-52.43174743652344	-1025.734985351562	45.03079605102539	-145.7124481201172	-906.1154174804688	393.750244140625	-108.410888671875	-792.8314208984375	47.27532196044922	-173.6444549560547	-853.91357421875	49.69640731811523	-208.5093536376953	-877.5530395507812	44.32984924316406	-114.2484283447266	-1079.40283203125	46.39012145996094	-193.8385009765625	-790.7610473632812	673.1944580078125	-410.3932495117188	nan	nan	nan	nan	nan	nan	nan	nan	nan	
332	3.31	-967.48291015625	1068.634399414062	-133.7352905273438	-983.1051635742188	1068.860229492188	-297.8583679199219	-975.91357421875	1130.372802734375	-220.4152526855469	-736.1615600585938	1315.4853515625	-229.0331268310547	-989.8853759765625	1278.303466796875	-219.0125427246094	-929.7749633789062	1543.08251953125	-231.6314849853516	-774.2360229492188	1443.5205078125	-232.5917816162109	-982.5143432617188	1407.3876953125	-148.5145416259766	-951.7652587890625	1501.841064453125	-329.1101989746094	-850.9314575195312	1504.50927734375	-407.1588745117188	-890.05126953125	1381.731811523438	-482.8418273925781	-901.8502197265625	1164.475952148438	-510.8788452148438	-956.0910034179688	1152.626953125	-420.5008850097656	-793.2871704101562	923.0880126953125	-448.9237976074219	-868.3019409179688	899.3049926757812	-490.397705078125	-881.9012451171875	1049.194702148438	-514.577880859375	-745.6271362304688	744.28955078125	-425.5368957519531	-825.1831665039062	814.1580810546875	-487.2660522460938	-762.4842529296875	832.2474975585938	-459.843994140625	-845.8160400390625	1525.60888671875	-60.90660095214844	-857.1226806640625	1455.076049804688	13.66337871551514	-891.4447631835938	1188.132934570312	49.41677093505859	-903.7804565429688	1157.1005859375	-45.2459602355957	-760.4547729492188	930.1989135742188	12.12712478637695	-819.3399658203125	915.4042358398438	82.18650817871094	-875.2159423828125	1112.504028320312	65.94168853759766	-737.482666015625	743.5596923828125	2.076686382293701	-724.1578369140625	821.2017822265625	26.66634941101074	-775.9435424804688	816.7080688476562	80.08234405517578	-861.768310546875	1717.771606445312	-149.0731048583984	-690.4976806640625	1729.416259765625	-273.2765197753906	-688.3141479492188	1727.505615234375	-174.5416564941406	-872.0451049804688	1725.896606445312	-293.2873229980469	-894.269287109375	974.9628295898438	-416.4097900390625	-856.0333251953125	950.843505859375	-41.9522819519043	-755.7481689453125	981.2545776367188	-120.1408081054688	-777.7166137695312	1012.295104980469	-352.3652648925781	-728.8161010742188	545.8480224609375	-373.4255981445312	-838.5323486328125	54.98168563842773	-369.9645080566406	-808.0203857421875	302.2176208496094	-388.37255859375	-622.3509521484375	67.41976165771484	-305.6406555175781	-680.630615234375	69.56005096435547	-287.3361206054688	-714.9151611328125	62.67212295532227	-388.3173828125	-908.6730346679688	59.34296417236328	-317.0833435058594	-873.3428344726562	516.931884765625	-104.9629745483398	-841.0109252929688	783.285400390625	-52.35208892822266	-1025.805053710938	45.00038909912109	-145.7010955810547	-907.2698364257812	394.0141296386719	-108.3588180541992	-792.883056640625	47.28004837036133	-173.6761627197266	-853.9520263671875	49.69192886352539	-208.5382232666016	-877.6214599609375	44.34835433959961	-114.2650375366211	-1079.395629882812	46.24998474121094	-193.7812347412109	-793.2589721679688	673.498291015625	-409.3623962402344	nan	nan	nan	nan	nan	nan	nan	nan	nan	
333	3.32	-970.1055297851562	1068.759033203125	-133.7176055908203	-985.596435546875	1068.987548828125	-298.2232360839844	-978.5818481445312	1130.501342773438	-220.4032592773438	-739.0697631835938	1315.89306640625	-228.8659057617188	-992.9004516601562	1278.441772460938	-219.0757293701172	-932.902099609375	1543.284423828125	-231.8841705322266	-777.2811279296875	1443.906860351562	-232.5733795166016	-985.625732421875	1407.615112304688	-148.6914672851562	-954.7815551757812	1501.9111328125	-329.3323059082031	-853.9080200195312	1504.583862304688	-407.3008422851562	-892.83056640625	1381.653564453125	-482.9335327148438	-904.2141723632812	1164.356689453125	-510.7758178710938	-958.6431884765625	1152.47265625	-420.4917907714844	-795.1229858398438	923.375	-448.2702331542969	-869.9683837890625	899.2947387695312	-489.9906616210938	-883.9732055664062	1049.129760742188	-514.3101196289062	-747.0027465820312	744.7398681640625	-424.7327270507812	-826.5899047851562	814.29931640625	-486.7025146484375	-764.2078247070312	832.5510864257812	-459.183349609375	-849.1326904296875	1526.02880859375	-61.03309631347656	-860.618896484375	1455.634643554688	13.59599113464355	-895.7758178710938	1188.913940429688	49.61085510253906	-907.9195556640625	1157.771240234375	-45.0381965637207	-766.5027465820312	929.9652709960938	13.43683052062988	-825.79052734375	915.8677368164062	83.43359375	-880.0874633789062	1113.316040039062	66.34577178955078	-745.034423828125	743.162353515625	4.114404201507568	-731.2678833007812	820.7068481445312	28.55340576171875	-783.1835327148438	816.8291625976562	81.78355407714844	-864.9590454101562	1718.00244140625	-149.3554840087891	-693.4837036132812	1729.713012695312	-273.2913208007812	-691.4539794921875	1727.822631835938	-174.5563507080078	-874.9824829101562	1726.1064453125	-293.5920104980469	-896.6513671875	975.1387329101562	-416.3262023925781	-858.5794677734375	951.1155395507812	-41.70683670043945	-758.1528930664062	981.76171875	-119.991325378418	-780.0999755859375	1012.711181640625	-352.2177429199219	-732.318115234375	545.2938842773438	-373.0872192382812	-852.8617553710938	56.22178268432617	-369.6333923339844	-816.5721435546875	302.638671875	-388.1816711425781	-636.54931640625	65.15932464599609	-305.0606689453125	-694.8294067382812	68.24668121337891	-286.8405456542969	-729.148193359375	61.83575057983398	-387.8259582519531	-922.9152221679688	61.6924934387207	-316.796630859375	-874.7371826171875	517.2095947265625	-104.9788208007812	-842.8529052734375	783.6304931640625	-52.31252288818359	-1025.875610351562	44.96953582763672	-145.6851654052734	-908.3638305664062	394.2629699707031	-108.3227310180664	-792.9365844726562	47.2861213684082	-173.7130737304688	-853.9930419921875	49.6934814453125	-208.5632171630859	-877.6796264648438	44.37088012695312	-114.2784271240234	-1079.412109375	46.1270751953125	-193.7301788330078	-795.7903442382812	673.6634521484375	-408.3371887207031	nan	nan	nan	nan	nan	nan	nan	nan	nan	
334	3.33	-972.5885620117188	1068.863403320312	-133.7533874511719	-987.9266967773438	1069.060424804688	-298.6221923828125	-981.1072998046875	1130.582885742188	-220.4675445556641	-741.90478515625	1316.278564453125	-228.7441253662109	-995.7310180664062	1278.533813476562	-219.2083282470703	-935.9655151367188	1543.4501953125	-232.1790771484375	-780.263671875	1444.26123046875	-232.5969085693359	-988.6603393554688	1407.79736328125	-148.9214477539062	-957.7319946289062	1501.953491210938	-329.6038513183594	-856.8104858398438	1504.651489257812	-407.4777526855469	-895.496826171875	1381.562377929688	-483.063720703125	-906.4422607421875	1164.2294921875	-510.6920166015625	-961.039794921875	1152.312133789062	-420.4927062988281	-796.8934936523438	923.595458984375	-447.7027587890625	-871.5906372070312	899.2618408203125	-489.62939453125	-885.9324340820312	1049.051025390625	-514.0757446289062	-748.3994750976562	745.096923828125	-424.0258178710938	-827.998291015625	814.3982543945312	-486.203857421875	-765.8779907226562	832.769775390625	-458.603515625	-852.3949584960938	1526.420532226562	-61.2061882019043	-864.0492553710938	1456.160400390625	13.47957992553711	-899.9869995117188	1189.66259765625	49.75020217895508	-911.9349975585938	1158.405883789062	-44.87876510620117	-772.4860229492188	929.7005004882812	14.70186233520508	-832.128173828125	916.3219604492188	84.62622833251953	-884.82373046875	1114.103759765625	66.69319152832031	-752.531494140625	742.7549438476562	6.100178241729736	-738.2935180664062	820.1936645507812	30.37954521179199	-790.3458251953125	816.9434814453125	83.42990112304688	-868.0722045898438	1718.225708007812	-149.6858062744141	-696.4092407226562	1729.982177734375	-273.3725891113281	-694.5263061523438	1728.109985351562	-174.6385955810547	-877.8707275390625	1726.279052734375	-293.9391174316406	-898.8607177734375	975.2514038085938	-416.2747802734375	-860.948486328125	951.3818359375	-41.53765487670898	-760.42431640625	982.240234375	-119.9005966186523	-782.3059692382812	1013.06689453125	-352.1324157714844	-735.99755859375	544.6112670898438	-372.7289733886719	-867.0680541992188	57.54697799682617	-369.3387145996094	-825.171142578125	303.0299987792969	-388.0126037597656	-650.6047973632812	63.02223205566406	-304.7610473632812	-708.8532104492188	67.04676818847656	-286.5848083496094	-743.3128051757812	61.13966369628906	-387.5071716308594	-936.9103393554688	64.05941009521484	-316.4591064453125	-876.0516357421875	517.4633178710938	-105.0189208984375	-844.5830078125	783.9287109375	-52.29161834716797	-1025.945190429688	44.93812942504883	-145.6635894775391	-909.383056640625	394.4951171875	-108.2938385009766	-792.9903564453125	47.29257583618164	-173.755615234375	-854.0402221679688	49.70405578613281	-208.5859832763672	-877.7274169921875	44.39691162109375	-114.2898101806641	-1079.453979492188	46.02458953857422	-193.6855621337891	-798.3967895507812	673.685546875	-407.3645935058594	nan	nan	nan	nan	nan	nan	nan	nan	nan	
